HIERARCHY
ROOT joint_Root
{
	OFFSET 0.0 0.0 0.0
	CHANNELS 6 Xposition Yposition Zposition Zrotation Xrotation Yrotation 
	JOINT Hips
	{
		OFFSET -17.1583 93.1646 452.98
		CHANNELS 6 Xposition Yposition Zposition Zrotation Xrotation Yrotation 
		JOINT Spine
		{
			OFFSET 15.7357 0.0 0.0
			CHANNELS 6 Xposition Yposition Zposition Zrotation Xrotation Yrotation 
			JOINT Chest
			{
				OFFSET 8.98455 -0.406207 0.0
				CHANNELS 6 Xposition Yposition Zposition Zrotation Xrotation Yrotation 
				JOINT Neck
				{
					OFFSET 16.3773 0.0 0.0
					CHANNELS 6 Xposition Yposition Zposition Zrotation Xrotation Yrotation 
					JOINT Head
					{
						OFFSET 6.45672 0.0 0.0
						CHANNELS 6 Xposition Yposition Zposition Zrotation Xrotation Yrotation 
						End Site
						{
							OFFSET 0.0 0.0 0.0
						}
					}
				}
				JOINT Shoulder_L
				{
					OFFSET 12.9942 -0.242716 4.98039
					CHANNELS 6 Xposition Yposition Zposition Zrotation Xrotation Yrotation 
					JOINT UpperArm_L
					{
						OFFSET 5.34809 0.0 0.0
						CHANNELS 6 Xposition Yposition Zposition Zrotation Xrotation Yrotation 
						JOINT LowerArm_L
						{
							OFFSET 24.3286 1.87007e-05 0.0
							CHANNELS 6 Xposition Yposition Zposition Zrotation Xrotation Yrotation 
							JOINT Hand_L
							{
								OFFSET 22.2916 0.0 0.0
								CHANNELS 6 Xposition Yposition Zposition Zrotation Xrotation Yrotation 
								End Site
								{
									OFFSET 0.0 0.0 0.0
								}
							}
						}
					}
				}
				JOINT Shoulder_R
				{
					OFFSET 12.9945 -0.242716 -4.98039
					CHANNELS 6 Xposition Yposition Zposition Zrotation Xrotation Yrotation 
					JOINT UpperArm_R
					{
						OFFSET -5.34813 0.0 0.0
						CHANNELS 6 Xposition Yposition Zposition Zrotation Xrotation Yrotation 
						JOINT LowerArm_R
						{
							OFFSET -24.3289 0.000322201 0.0
							CHANNELS 6 Xposition Yposition Zposition Zrotation Xrotation Yrotation 
							JOINT Hand_R
							{
								OFFSET -22.2915 -0.000108084 0.0
								CHANNELS 6 Xposition Yposition Zposition Zrotation Xrotation Yrotation 
								End Site
								{
									OFFSET 0.0 0.0 0.0
								}
							}
						}
					}
				}
			}
		}
		JOINT UpperLeg_L
		{
			OFFSET -2.19248 -6.46944 0.0
			CHANNELS 6 Xposition Yposition Zposition Zrotation Xrotation Yrotation 
			JOINT LowerLeg_L
			{
				OFFSET 39.0811 0.0 -1.23785e-05
				CHANNELS 6 Xposition Yposition Zposition Zrotation Xrotation Yrotation 
				JOINT Foot_L
				{
					OFFSET 40.9854 0.0 -1.26872e-05
					CHANNELS 6 Xposition Yposition Zposition Zrotation Xrotation Yrotation 
					JOINT Toes_L
					{
						OFFSET 11.7543 0.0 0.0
						CHANNELS 6 Xposition Yposition Zposition Zrotation Xrotation Yrotation 
						End Site
						{
							OFFSET 0.0 0.0 0.0
						}
					}
				}
			}
		}
		JOINT UpperLeg_R
		{
			OFFSET -2.19251 6.46944 0.0
			CHANNELS 6 Xposition Yposition Zposition Zrotation Xrotation Yrotation 
			JOINT LowerLeg_R
			{
				OFFSET -39.0811 -0.00228153 -0.0401928
				CHANNELS 6 Xposition Yposition Zposition Zrotation Xrotation Yrotation 
				JOINT Foot_R
				{
					OFFSET -40.9854 0.0 0.0
					CHANNELS 6 Xposition Yposition Zposition Zrotation Xrotation Yrotation 
					JOINT Toes_R
					{
						OFFSET -11.7543 0.0 0.0
						CHANNELS 6 Xposition Yposition Zposition Zrotation Xrotation Yrotation 
						End Site
						{
							OFFSET 0.0 0.0 0.0
						}
					}
				}
			}
		}
	}
}
MOTION
Frames:	4
Frame Time:	0.0333333
0.000000 0.000000 0.000000 0.000000 0.000000 -0.000000 -0.578523 93.066700 0.433379 88.100900 1.140950 -1.354050 15.735700 0.000005 -0.000001 73.508500 88.543600 -72.331400 8.984550 -0.406207 -0.000000 -4.962580 -0.956669 2.314610 16.377300 -0.000001 -0.000001 5.546730 1.762860 -2.339580 6.456720 -0.000001 -0.000000 7.161070 1.270200 -0.837040 12.994200 -0.242716 4.980390 -92.487900 7.637750 -71.897200 5.348090 -0.000007 -0.000001 -73.731300 28.685400 1.441130 24.328600 0.000019 0.000005 13.745600 30.874600 -25.486400 22.291600 -0.000001 0.000005 -3.649750 5.041190 6.430630 12.994500 -0.242716 -4.980390 88.365000 5.291240 -72.801200 -5.348130 -0.000001 -0.000004 -70.665200 27.296200 -2.898510 -24.328900 0.000322 -0.000009 2.741710 7.137590 -21.084700 -22.291500 -0.000108 -0.000004 -2.989860 5.206620 2.552910 -2.192480 -6.469440 -0.000000 -177.863000 -0.247402 -3.011720 39.081100 -0.000007 -0.000012 0.152647 -0.511536 16.615800 40.985400 -0.000006 -0.000013 2.724870 8.869310 -70.746300 11.754300 -0.000000 0.000003 -0.000186 0.170695 -9.653350 -2.192510 6.469440 -0.000001 -176.022000 8.628810 -178.934000 -39.081100 -0.002282 -0.040193 0.004671 -0.007256 10.409200 -40.985400 0.000008 0.000006 -3.102340 1.565310 -68.037000 -11.754300 -0.000006 -0.000006 -0.009520 0.267679 -5.699270
0.000000 0.000000 0.000000 0.000000 0.000000 -0.000000 -0.598727 93.077200 0.357873 88.078700 1.141020 -1.392920 15.735700 0.000005 -0.000001 74.131400 88.522400 -72.941100 8.984550 -0.406207 -0.000000 -4.912880 -0.938869 2.342300 16.377300 -0.000001 -0.000001 5.421210 1.717140 -2.278920 6.456720 -0.000001 -0.000000 7.038000 1.228800 -0.790543 12.994200 -0.242716 4.980390 -92.461500 7.572020 -71.932500 5.348090 -0.000007 -0.000001 -73.832000 28.640200 1.436200 24.328600 0.000019 0.000005 13.774900 30.911500 -25.511800 22.291600 -0.000001 0.000005 -3.676800 5.041980 6.413430 12.994500 -0.242716 -4.980390 88.352600 5.313430 -72.746900 -5.348130 -0.000001 -0.000004 -69.902800 26.117600 -3.187600 -24.328900 0.000322 -0.000009 2.857390 7.189010 -21.751300 -22.291500 -0.000108 -0.000004 -3.104260 5.206980 2.543590 -2.192480 -6.469440 -0.000000 -177.823000 -0.252046 -3.114730 39.081100 -0.000007 -0.000012 0.150971 -0.505923 16.615800 40.985400 -0.000006 -0.000013 2.708130 8.899300 -70.630600 11.754300 -0.000000 0.000003 0.000016 0.167352 -9.789130 -2.192510 6.469440 -0.000001 -175.974000 8.601480 -179.025000 -39.081100 -0.002282 -0.040193 0.004891 -0.008469 10.392800 -40.985400 0.000008 0.000006 -3.153060 1.556650 -67.976200 -11.754300 -0.000006 -0.000006 -0.009558 0.267976 -5.687150
0.000000 0.000000 0.000000 0.000000 0.000000 -0.000000 -0.616907 93.099600 0.254252 88.048200 1.181740 -1.468850 15.735700 0.000005 -0.000001 73.869800 88.500900 -72.652800 8.984550 -0.406207 -0.000000 -4.874790 -0.966307 2.394810 16.377300 -0.000001 -0.000001 5.271650 1.688560 -2.168240 6.456720 -0.000001 -0.000000 6.877090 1.214160 -0.761045 12.994200 -0.242716 4.980390 -92.442500 7.528230 -71.966300 5.348090 -0.000007 -0.000001 -73.938000 28.609100 1.441600 24.328600 0.000019 0.000005 13.835600 30.983600 -25.566900 22.291600 -0.000001 0.000005 -3.682040 5.043790 6.373810 12.994500 -0.242716 -4.980390 88.341200 5.337930 -72.708900 -5.348130 -0.000001 -0.000004 -68.952400 24.343800 -3.432780 -24.328900 0.000322 -0.000009 3.112440 7.373040 -22.970200 -22.291500 -0.000108 -0.000004 -3.234670 5.206020 2.567990 -2.192480 -6.469440 -0.000000 -177.790000 -0.196220 -3.241320 39.081100 -0.000007 -0.000012 0.151068 -0.507786 16.568100 40.985400 -0.000006 -0.000013 2.675310 8.849160 -70.584400 11.754300 -0.000000 0.000003 -0.000069 0.168786 -9.730900 -2.192510 6.469440 -0.000001 -175.930000 8.602130 -179.110000 -39.081100 -0.002282 -0.040193 0.003787 -0.002477 10.258000 -40.985400 0.000008 0.000006 -3.315770 1.537860 -67.827100 -11.754300 -0.000006 -0.000006 -0.009611 0.268372 -5.670920
0.000000 0.000000 0.000000 0.000000 0.000000 -0.000000 -0.622464 93.113600 0.155318 88.036400 1.293630 -1.507250 15.735700 0.000005 -0.000001 73.294100 88.454600 -72.059400 8.984550 -0.406207 -0.000000 -4.793910 -1.022870 2.428600 16.377300 -0.000001 -0.000001 5.034620 1.625080 -2.063770 6.456720 -0.000001 -0.000000 6.698350 1.166450 -0.599277 12.994200 -0.242716 4.980390 -92.419600 7.486540 -72.032000 5.348090 -0.000007 -0.000001 -74.027400 28.620200 1.429870 24.328600 0.000019 0.000005 13.846700 30.957800 -25.602200 22.291600 -0.000001 0.000005 -3.639570 5.042540 6.401240 12.994500 -0.242716 -4.980390 88.336600 5.336550 -72.659700 -5.348130 -0.000001 -0.000004 -67.910200 22.089900 -3.419120 -24.328900 0.000322 -0.000009 3.677670 7.832300 -25.257100 -22.291500 -0.000108 -0.000004 -3.184250 5.199450 2.733080 -2.192480 -6.469440 -0.000000 -177.765000 -0.055651 -3.370610 39.081100 -0.000007 -0.000012 0.150253 -0.504750 16.577400 40.985400 -0.000006 -0.000013 2.658430 8.867220 -70.520300 11.754300 -0.000000 0.000003 -0.000031 0.168148 -9.756780 -2.192510 6.469440 -0.000001 -175.892000 8.680840 -179.194000 -39.081100 -0.002282 -0.040193 0.003745 -0.002258 10.205200 -40.985400 0.000008 0.000006 -3.343010 1.493010 -67.749300 -11.754300 -0.000006 -0.000006 -0.009715 0.269161 -5.638680
